<svg xmlns="http://www.w3.org/2000/svg" width="4.943" height="10.692" viewBox="0 0 4.943 10.692"><path d="M331.52-200.369v-1.846H332.6a.3.3,0,0,0,.007-.05c0-.26-.005-.506,0-.764,0-.238,0-.471.019-.709a2.513,2.513,0,0,1,.245-.956,1.694,1.694,0,0,1,1.023-.871,2.74,2.74,0,0,1,.666-.133c.167-.012.336-.024.507-.024H336.4c.055,0,.055,0,.055.054v1.749c0,.047,0,.047-.055.047-.319,0-.645,0-.968,0a1.035,1.035,0,0,0-.276.041.4.4,0,0,0-.328.382c-.014.155-.014.314-.017.476,0,.238,0,.471-.007.709a.158.158,0,0,0,.007.042h1.653c-.066.619-.131,1.233-.2,1.846h-1.415c-.05,0-.05,0-.05.046v5.295h-2.191V-200.3c0-.083,0-.069-.069-.069-.328,0-.65,0-.973,0Z" transform="translate(-331.52 205.721)" fill="#3e4244" fill-rule="evenodd"/></svg>