<svg xmlns="http://www.w3.org/2000/svg" width="5.344" height="8.693" viewBox="0 0 5.344 8.693"><g transform="translate(0)"><path d="M563.9,177.475a2.57,2.57,0,0,0,.125.909,1.557,1.557,0,0,0,.448.592,2.257,2.257,0,0,0,.781.428,3.364,3.364,0,0,0,1.053.151,4.321,4.321,0,0,0,.977-.105,5.2,5.2,0,0,0,1.008-.368v-1.367a2.373,2.373,0,0,1-1.313.429,1.255,1.255,0,0,1-.66-.173.661.661,0,0,1-.3-.343,3.555,3.555,0,0,1-.08-.971v-2.23h2.064v-1.365h-2.064v-2.2h-1.231a3.4,3.4,0,0,1-.3,1.107,2.383,2.383,0,0,1-.584.745,2.545,2.545,0,0,1-.874.476v1.238h.952Z" transform="translate(-562.95 -170.862)" fill="#fff"/></g></svg>