<svg xmlns="http://www.w3.org/2000/svg" width="10.982" height="6.749" viewBox="0 0 10.982 6.749"><g transform="translate(0)"><path d="M559.649,245.262l-2.242,2.536c.18.076.247-.03.323-.094q1.1-.925,2.2-1.854a1.283,1.283,0,0,1,.289-.221c.411.2.745.566,1.261.56s.83-.358,1.254-.569l2.685,2.257.076-.077a14.4,14.4,0,0,0-1.08-1.262c-.364-.425-.741-.838-1.141-1.288,1.214-.78,2.361-1.629,3.571-2.386a.32.32,0,0,1,.085.3q0,2.579,0,5.159a.633.633,0,0,1-.688.69q-4.769,0-9.538,0a.679.679,0,0,1-.747-.766q0-2.489,0-4.979a.246.246,0,0,1,0-.03c.018-.112-.058-.263.081-.324.122-.054.225.054.323.119.325.215.646.435.969.653l2.136,1.441C559.523,245.163,559.575,245.206,559.649,245.262Z" transform="translate(-555.952 -242.264)" fill="#fff"/><path d="M561.93,240.684h4.83c.08,0,.16,0,.24,0,.1.008.214,0,.255.115a.248.248,0,0,1-.137.3c-.169.105-.344.2-.52.3q-2,1.089-4,2.178a1.331,1.331,0,0,1-1.367,0c-1.427-.782-2.859-1.555-4.289-2.332a1.225,1.225,0,0,1-.3-.2.24.24,0,0,1-.069-.246c.027-.1.118-.1.195-.111a2.2,2.2,0,0,1,.27-.007Z" transform="translate(-556.397 -240.683)" fill="#fff"/></g></svg>