<svg xmlns="http://www.w3.org/2000/svg" width="6.56" height="8.474" viewBox="0 0 6.56 8.474"><g transform="translate(0)"><path d="M567.118,115.641a.167.167,0,0,0,.244-.121c.022-.085.076-.3.1-.391a.235.235,0,0,0-.07-.271,1.405,1.405,0,0,1-.321-.955,2.305,2.305,0,0,1,2.4-2.331,1.822,1.822,0,0,1,2.025,1.866c0,1.4-.621,2.588-1.543,2.588a.753.753,0,0,1-.768-.937,10.416,10.416,0,0,0,.43-1.728.652.652,0,0,0-.656-.731c-.521,0-.939.539-.939,1.26a1.872,1.872,0,0,0,.155.77l-.626,2.652a5.456,5.456,0,0,0-.015,1.85.065.065,0,0,0,.116.028,5.192,5.192,0,0,0,.879-1.593c.06-.216.343-1.338.343-1.338a1.4,1.4,0,0,0,1.189.607c1.565,0,2.626-1.426,2.626-3.336a2.909,2.909,0,0,0-3.081-2.788,3.222,3.222,0,0,0-3.479,3.041A1.874,1.874,0,0,0,567.118,115.641Z" transform="translate(-566.121 -110.741)" fill="#fff"/></g></svg>