<svg xmlns="http://www.w3.org/2000/svg" width="9.381" height="7.633" viewBox="0 0 9.381 7.633"><g transform="translate(0)"><path d="M236.877-172.329v.009a.931.931,0,0,1-.172.259,3.414,3.414,0,0,1-.421.455c-.094.085-.2.171-.3.246a.1.1,0,0,0-.046.088V-171a4.83,4.83,0,0,1-.061.738,5.444,5.444,0,0,1-.223.915,5.98,5.98,0,0,1-.4.923,6.642,6.642,0,0,1-.589.881,3.617,3.617,0,0,1-.293.325,4.6,4.6,0,0,1-.646.578,3.963,3.963,0,0,1-.541.357,5.153,5.153,0,0,1-.961.425,5.567,5.567,0,0,1-.969.221c-.14.02-.283.026-.422.032h-.651a4.4,4.4,0,0,1-1.267-.192,5.256,5.256,0,0,1-1.057-.427c-.112-.059-.22-.122-.331-.192-.038-.022-.042-.038-.024-.063a.847.847,0,0,1,.127,0,2.615,2.615,0,0,0,.5.013c.144-.013.286-.019.426-.042a4.013,4.013,0,0,0,1-.3,4.44,4.44,0,0,0,.708-.42c0-.006.006-.006.013-.013-.071-.016-.139-.016-.208-.028a2.051,2.051,0,0,1-.653-.225,1.873,1.873,0,0,1-.484-.394,1.776,1.776,0,0,1-.328-.5,1.745,1.745,0,0,1-.067-.163c-.018-.051,0-.079.059-.067a1.647,1.647,0,0,0,.279.028,1.831,1.831,0,0,0,.447-.052,1.2,1.2,0,0,1-.247-.075,2.672,2.672,0,0,1-.244-.116,1.926,1.926,0,0,1-.217-.145,2.006,2.006,0,0,1-.54-.637,2.008,2.008,0,0,1-.215-.672,1.947,1.947,0,0,1-.009-.221c0-.047.027-.063.071-.038a1.99,1.99,0,0,0,.66.2.368.368,0,0,0,.082,0,2.329,2.329,0,0,1-.237-.208,1.79,1.79,0,0,1-.357-.49,1.835,1.835,0,0,1-.194-.682,1.928,1.928,0,0,1,.091-.829,2.316,2.316,0,0,1,.127-.3c.036-.059.06-.059.105,0,.083.095.166.19.253.278a4.54,4.54,0,0,0,.532.486,5.306,5.306,0,0,0,.733.5,5.154,5.154,0,0,0,1,.443,6.128,6.128,0,0,0,.974.217c.116.013.231.025.348.032.041.006.046,0,.041-.044a1.913,1.913,0,0,1-.028-.205,1.932,1.932,0,0,1,0-.329,1.872,1.872,0,0,1,.057-.341,1.938,1.938,0,0,1,.371-.723,1.854,1.854,0,0,1,.663-.524,1.574,1.574,0,0,1,.451-.155,1.548,1.548,0,0,1,.208-.016.042.042,0,0,0,.02,0h.04a.089.089,0,0,0,.041,0h.257c.057.007.115.007.173.013a1.547,1.547,0,0,1,.4.111,1.924,1.924,0,0,1,.543.334.724.724,0,0,1,.095.1.086.086,0,0,0,.078.022,4.164,4.164,0,0,0,.7-.22c.145-.067.287-.133.422-.206a.04.04,0,0,1,.051-.006c.017.013.011.033.005.047a1.4,1.4,0,0,1-.164.354,1.662,1.662,0,0,1-.348.43,1.073,1.073,0,0,1-.254.2h0a3.22,3.22,0,0,0,.432-.088,2.976,2.976,0,0,0,.526-.18C236.834-172.332,236.856-172.351,236.877-172.329Z" transform="translate(-227.495 173.235)" fill="#3e4244" fill-rule="evenodd"/><path d="M239.665-139.947h.316s0,0,0,0h-.314S239.663-139.947,239.665-139.947Z" transform="translate(-236.875 147.577)" fill="#3e4244" fill-rule="evenodd"/><path d="M239.436-139.947l0,0h-.065c-.009,0-.009,0,0,0Z" transform="translate(-236.645 147.577)" fill="#3e4244" fill-rule="evenodd"/><path d="M241.05-139.944v0h.064c.01,0,.01,0,0,0Z" transform="translate(-237.943 147.577)" fill="#3e4244" fill-rule="evenodd"/><path d="M255.3-173.235a.045.045,0,0,1-.041,0Z" transform="translate(-248.892 173.235)" fill="#3e4244" fill-rule="evenodd"/></g></svg>