<svg xmlns="http://www.w3.org/2000/svg" viewBox="0 0 117.068 117.068"><path d="M1324.534,1693.333a58.534,58.534,0,1,1,58.534-58.534A58.6,58.6,0,0,1,1324.534,1693.333Zm0-110.78a52.246,52.246,0,1,0,52.246,52.246A52.305,52.305,0,0,0,1324.534,1582.553Z" transform="translate(-1266 -1576.265)" fill="#fff"/><g transform="translate(42.172 23.449)"><path d="M1363.051,1661.6v33.925a.883.883,0,0,0,.884.883h12.6a.883.883,0,0,0,.884-.883v-34.478h9.133a.884.884,0,0,0,.881-.809l.879-10.388a.884.884,0,0,0-.881-.958h-10.012v-7.37a3.128,3.128,0,0,1,3.128-3.128h7.04a.884.884,0,0,0,.884-.884v-10.388a.884.884,0,0,0-.884-.884h-11.895a12.638,12.638,0,0,0-12.638,12.638v10.015h-6.3a.884.884,0,0,0-.884.884v10.388a.884.884,0,0,0,.884.884h6.3Z" transform="translate(-1355.868 -1626.234)" fill="#fff" fill-rule="evenodd"/></g></svg>