<svg xmlns="http://www.w3.org/2000/svg" width="117.068" height="117.068" viewBox="0 0 117.068 117.068"><path d="M2498.662,1693.333A58.534,58.534,0,1,1,2557.2,1634.8,58.6,58.6,0,0,1,2498.662,1693.333Zm0-110.78a52.246,52.246,0,1,0,52.245,52.246A52.3,52.3,0,0,0,2498.662,1582.553Z" transform="translate(-2440.128 -1576.265)" fill="#fff"/><g transform="translate(24.53 34.625)"><path d="M2561.454,1665.083a15.032,15.032,0,0,0-15.032-15.032h-38.988a15.032,15.032,0,0,0-15.032,15.032v18.272a15.032,15.032,0,0,0,15.032,15.032h38.988a15.032,15.032,0,0,0,15.032-15.032Zm-24.6,10.057-15.549,8.528c-.676.366-1.284-.124-1.284-.893v-17.5c0-.778.627-1.267,1.3-.882l15.656,8.977A1.019,1.019,0,0,1,2536.855,1675.14Z" transform="translate(-2492.402 -1650.051)" fill="#fff"/></g></svg>