<svg xmlns="http://www.w3.org/2000/svg" width="116.87" height="116.869" viewBox="0 0 116.87 116.869"><g transform="translate(0 0)"><path d="M1927.924,1693.346a58.434,58.434,0,1,1,58.435-58.434A58.5,58.5,0,0,1,1927.924,1693.346Zm0-110.581a52.146,52.146,0,1,0,52.147,52.146A52.206,52.206,0,0,0,1927.924,1582.765Z" transform="translate(-1869.489 -1576.477)" fill="#fff"/></g><g transform="translate(31.726 27.381)"><path d="M1968.269,1684.627c-4.18-.323-5.936-2.4-9.214-4.386-1.46,7.664-3.184,15.07-7.259,20.122a2.064,2.064,0,0,1-3.676-1.156c-.616-12.21,3.6-21.9,5.673-32.126-3.935-6.623.473-19.955,8.771-16.67,10.214,4.039-8.843,24.628,3.951,27.2,13.356,2.685,18.808-23.174,10.525-31.586-11.967-12.144-34.834-.276-32.022,17.109.532,3.3,3.305,4.819,2.952,8.085a2.907,2.907,0,0,1-4.16,2.333c-5.3-2.477-6.94-7.9-6.688-14.8.474-13.182,11.845-22.413,23.25-23.69,14.425-1.615,27.963,5.3,29.832,18.865,2.1,15.313-6.512,31.9-21.935,30.706Z" transform="translate(-1937.098 -1634.825)" fill="#fff"/></g></svg>