<svg xmlns="http://www.w3.org/2000/svg" width="117.068" height="117.068" viewBox="0 0 117.068 117.068"><g transform="translate(0)"><path d="M3079.064,1693.333A58.534,58.534,0,1,1,3137.6,1634.8,58.6,58.6,0,0,1,3079.064,1693.333Zm0-110.78a52.246,52.246,0,1,0,52.245,52.246A52.3,52.3,0,0,0,3079.064,1582.553Z" transform="translate(-3020.53 -1576.265)" fill="#fff"/></g><path d="M3090.569,1696.9c0-3.045-.1-5.71.037-8.361a4.676,4.676,0,0,0-1.868-4.1,27.4,27.4,0,0,1-9.7-19.943c-.674-12.724,7.923-23.692,18.877-27.826,11.478-4.333,22.365-2.886,32.2,4.539a26.616,26.616,0,0,1,10.766,18.009c1.184,8.672-1.045,16.474-7.166,22.984-7.045,7.494-15.8,10.62-25.933,10.186a24.811,24.811,0,0,1-4.5-.713,4.878,4.878,0,0,0-3.915.492c-2.41,1.461-4.913,2.772-7.383,4.135C3091.663,1696.472,3091.3,1696.587,3090.569,1696.9Zm38.546-40.652a3.409,3.409,0,0,0-1.7.622c-3.258,1.816-6.506,3.65-9.765,5.465a7.5,7.5,0,0,1-2.884,1.241c-2.724-2.457-5.24-5.283-7.956-8.229l-15.865,16.984.209.227,14.061-7.648,7.911,8.25c2.319-1.885,3.928-4.13,5.822-6.1,3.426-3.567,6.764-7.218,10.139-10.833l.111-.114Z" transform="translate(-3051.564 -1607.032)" fill="#fff"/></svg>