<svg xmlns="http://www.w3.org/2000/svg" width="117.068" height="117.068" viewBox="0 0 117.068 117.068"><g transform="translate(0)"><g transform="translate(0)"><path d="M2791.136,1693.333a58.534,58.534,0,1,1,58.533-58.534A58.6,58.6,0,0,1,2791.136,1693.333Zm0-110.78a52.246,52.246,0,1,0,52.245,52.246A52.3,52.3,0,0,0,2791.136,1582.553Z" transform="translate(-2732.602 -1576.265)" fill="#fff"/></g><g transform="translate(31.767 42.08)"><path d="M2807.583,1696.518c.78.158,1.085-.373,1.468-.694,3.7-3.1,7.4-6.2,11.052-9.349a1.365,1.365,0,0,1,1.989-.13,10.978,10.978,0,0,0,3.835,2.051,6.92,6.92,0,0,0,5.942-1.8c1.117-.909,1.829-.643,2.814.218,3.449,3.016,6.978,5.94,10.49,8.881.425.356.764.91,1.506.858.249-.61-.3-.869-.575-1.179-3.061-3.475-6.122-6.951-9.239-10.376-.731-.8-.79-1.142.214-1.8,4.837-3.194,9.605-6.492,14.4-9.752.322-.219.651-.427.982-.632.969-.6,1.372-.386,1.369.806-.024,8.484-.005,16.968-.019,25.453a3.035,3.035,0,0,1-3.208,3.215q-23.4.023-46.809,0a3.266,3.266,0,0,1-3.5-3.585q-.005-12.434,0-24.867c0-1.488.383-1.744,1.593-.938,5.271,3.511,10.5,7.078,15.771,10.591.875.584.281.933-.079,1.34-2.973,3.358-5.96,6.7-8.926,10.068C2808.254,1695.357,2807.692,1695.73,2807.583,1696.518Z" transform="translate(-2800.296 -1669.393)" fill="#fff"/><path d="M2828.168,1665.939q11.851,0,23.7,0a10.769,10.769,0,0,1,1.315.036c.375.047.812.083.955.539a1.058,1.058,0,0,1-.356,1.187,7.834,7.834,0,0,1-1.2.818q-10.7,5.843-21.422,11.665a6.115,6.115,0,0,1-6.148-.005q-10.72-5.818-21.428-11.654c-.214-.116-.429-.232-.635-.361-.559-.351-1.083-.785-.922-1.513.187-.845.965-.7,1.563-.7q9.29-.025,18.581-.012Z" transform="translate(-2801.199 -1665.938)" fill="#fff"/></g></g></svg>