<svg xmlns="http://www.w3.org/2000/svg" width="116.304" height="116.304" viewBox="0 0 116.304 116.304"><path d="M1630.74,1693.383a58.152,58.152,0,1,1,58.152-58.152A58.219,58.219,0,0,1,1630.74,1693.383Zm0-110.78a52.628,52.628,0,1,0,52.628,52.628A52.687,52.687,0,0,0,1630.74,1582.6Zm19.608,29.034a4.3,4.3,0,1,0,4.3,4.3A4.3,4.3,0,0,0,1650.348,1611.637Zm-19.13,5.518a18.076,18.076,0,1,0,18.076,18.076A18.1,18.1,0,0,0,1631.218,1617.155Zm0,29.655a11.579,11.579,0,1,1,11.579-11.578A11.592,11.592,0,0,1,1631.218,1646.81Zm36.473-26.6a22.047,22.047,0,0,0-22.048-22.047h-29.1a22.047,22.047,0,0,0-22.048,22.047v29.1a22.048,22.048,0,0,0,22.048,22.047h29.1a22.048,22.048,0,0,0,22.048-22.047Zm-6.905,29.1a15.142,15.142,0,0,1-15.143,15.142h-29.1a15.142,15.142,0,0,1-15.143-15.142v-29.1a15.142,15.142,0,0,1,15.143-15.142h29.1a15.142,15.142,0,0,1,15.143,15.142Z" transform="translate(-1572.588 -1577.079)" fill="#fff"/></svg>