<svg xmlns="http://www.w3.org/2000/svg" viewBox="0 0 133.85 112.7"><title>logo101</title><g id="Layer_2" data-name="Layer 2"><g id="Layer_1-2" data-name="Layer 1"><g id="_Group_" data-name="&lt;Group&gt;"><path id="_Compound_Path_" data-name="&lt;Compound Path&gt;" d="M104.25,81.8a6.53,6.53,0,0,1-9-1.7L76.55,52.6,65.25,63.9V76.4a6.5,6.5,0,0,1-13,0V22.2a6.5,6.5,0,0,1,13,0V45.5l27.9-27.9a6.51,6.51,0,0,1,9.2,9.2L85.85,43.2c0,.1.1.1.1.2l20,29.3A6.67,6.67,0,0,1,104.25,81.8Zm28-79.8a6,6,0,0,0-4.6-2H24.05a5.83,5.83,0,0,0-4.6,2,5.48,5.48,0,0,0-1.4,4.8l7.4,71.1c.4,4.2,3.9,9.4,7.4,11.6l36.6,21.6a13.3,13.3,0,0,0,6.5,1.6,13,13,0,0,0,6.5-1.6l36.6-21.6c3.6-2,6.9-7.4,7.4-11.6l7.4-71.1A7,7,0,0,0,132.25,2Z" fill="#35ff79"/></g><g id="XMLID_453_-link" data-name="XMLID 453 -link"><polygon id="_Path_" data-name="&lt;Path&gt;" points="12.35 17.59 0.28 20.36 8.67 56.18 19.97 53.69 12.35 17.59" fill="#f9a61c"/></g><g id="_Group_2" data-name="&lt;Group&gt;"><g id="_Group_3" data-name="&lt;Group&gt;"><rect id="_Path_2" data-name="&lt;Path&gt;" x="1.96" y="17.72" width="16.5" height="38.4" transform="translate(-3.8 1.27) rotate(-6)" fill="#f9a61c"/></g></g></g></g></svg>